HIERARCHY
ROOT Hips
{
	OFFSET 55.693600 10.313583 97.199600
	CHANNELS 6 Xposition Yposition Zposition Xrotation Yrotation Zrotation
	JOINT spine
	{
		OFFSET 0.000000 -0.458068 7.965683
		CHANNELS 3 Xrotation Yrotation Zrotation
		JOINT spine1
		{
			OFFSET 0.000000 -0.000002 10.243103
			CHANNELS 3 Xrotation Yrotation Zrotation
			JOINT spine2
			{
				OFFSET 0.000000 -0.000001 9.814751
				CHANNELS 3 Xrotation Yrotation Zrotation
				JOINT Neck
				{
					OFFSET 0.000000 -1.201385 25.198601
					CHANNELS 3 Xrotation Yrotation Zrotation
					JOINT Head
					{
						OFFSET 0.000000 -0.000001 7.613144
						CHANNELS 3 Xrotation Yrotation Zrotation
						End Site
						{
							OFFSET 0.000000 6.077328 18.428101
						}
					}
				}
				JOINT RightShoulder
				{
					OFFSET -4.132702 0.575449 10.599205
					CHANNELS 3 Xrotation Yrotation Zrotation
					JOINT RightArm
					{
						OFFSET 0.000000 -0.000003 13.901794
						CHANNELS 3 Xrotation Yrotation Zrotation
						JOINT RightArmRoll
						{
							OFFSET 0.000000 -0.000001 7.017883
							CHANNELS 3 Xrotation Yrotation Zrotation
							JOINT RightForeArm
							{
								OFFSET 0.000000 -0.000003 20.440598
								CHANNELS 3 Xrotation Yrotation Zrotation
								JOINT RightForeArmRoll
								{
									OFFSET 0.000000 -0.000002 7.875153
									CHANNELS 3 Xrotation Yrotation Zrotation
									JOINT RightHand
									{
										OFFSET 0.000000 -0.000002 15.803696
										CHANNELS 3 Xrotation Yrotation Zrotation
										End Site
										{
											OFFSET 0.000000 0.000000 0.100006
										}
									}
								}
							}
						}
					}
				}
				JOINT LeftShoulder
				{
					OFFSET 4.132702 0.575449 10.599205
					CHANNELS 3 Xrotation Yrotation Zrotation
					JOINT LeftArm
					{
						OFFSET 0.000000 -0.000003 13.901794
						CHANNELS 3 Xrotation Yrotation Zrotation
						JOINT LeftArmRoll
						{
							OFFSET 0.000000 -0.000001 7.017883
							CHANNELS 3 Xrotation Yrotation Zrotation
							JOINT LeftForeArm
							{
								OFFSET 0.000000 -0.000003 20.440598
								CHANNELS 3 Xrotation Yrotation Zrotation
								JOINT LeftForeArmRoll
								{
									OFFSET 0.000000 -0.000002 7.875153
									CHANNELS 3 Xrotation Yrotation Zrotation
									JOINT LeftHand
									{
										OFFSET 0.000000 -0.000002 15.803696
										CHANNELS 3 Xrotation Yrotation Zrotation
										End Site
										{
											OFFSET 0.000000 0.000000 0.100006
										}
									}
								}
							}
						}
					}
				}
			}
		}
	}
	JOINT RightUpLeg
	{
		OFFSET -7.060482 1.086101 -1.294701
		CHANNELS 3 Xrotation Yrotation Zrotation
		JOINT RightUpLegRoll
		{
			OFFSET 0.000000 -0.000004 18.530800
			CHANNELS 3 Xrotation Yrotation Zrotation
			JOINT RightLeg
			{
				OFFSET 0.000000 0.000004 -22.947601
				CHANNELS 3 Xrotation Yrotation Zrotation
				JOINT RightLegRoll
				{
					OFFSET 0.000000 -0.000004 23.022598
					CHANNELS 3 Xrotation Yrotation Zrotation
					JOINT RightFoot
					{
						OFFSET 0.000000 -0.000003 19.162506
						CHANNELS 3 Xrotation Yrotation Zrotation
						JOINT RightToeBase
						{
							OFFSET 0.000000 -0.000003 16.018799
							CHANNELS 3 Xrotation Yrotation Zrotation
							End Site
							{
								OFFSET 0.006790 0.894205 7.757828
							}
						}
					}
				}
			}
		}
	}
	JOINT LeftUpLeg
	{
		OFFSET 7.060482 1.086101 -1.294701
		CHANNELS 3 Xrotation Yrotation Zrotation
		JOINT LeftUpLegRoll
		{
			OFFSET 0.000000 -0.000004 18.530899
			CHANNELS 3 Xrotation Yrotation Zrotation
			JOINT LeftLeg
			{
				OFFSET 0.000000 -0.000003 22.947502
				CHANNELS 3 Xrotation Yrotation Zrotation
				JOINT LeftLegRoll
				{
					OFFSET 0.000000 -0.000004 23.235504
					CHANNELS 3 Xrotation Yrotation Zrotation
					JOINT LeftFoot
					{
						OFFSET 0.000000 -0.000004 18.949600
						CHANNELS 3 Xrotation Yrotation Zrotation
						JOINT LeftToeBase
						{
							OFFSET 0.000000 -0.000002 16.018799
							CHANNELS 3 Xrotation Yrotation Zrotation
							End Site
							{
								OFFSET -0.030430 0.894204 7.757828
							}
						}
					}
				}
			}
		}
	}
}
MOTION
Frames: 6
Frame Time: 0.041667
58.306999 5.704480 106.966003 0.786856 -0.066955 14.496317 -0.407992 0.023872 -0.452377 3.187081 0.046474 -0.904664 4.832060 0.035634 -0.905161 -2.588115 -10.338173 -1.493604 16.003939 5.385925 -0.950390 -23.935891 -60.236866 -28.259074 703.967435 -58.814800 760.558284 -0.000003 0.000003 0.000008 79.497897 0.994980 1.526826 -0.000002 0.000002 -3.000957 -4.999673 -7.999417 -0.000222 -8.588253 45.897280 9.177390 -123.356290 106.981458 84.727445 -0.000004 -0.000019 -0.000001 41.019145 -9.384673 2.906333 -0.000000 -0.000001 3.003839 -5.000402 7.998722 -0.000227 -3.858553 -169.922430 3.044423 -179.999991 0.000004 -1.446998 167.864890 3.241086 -0.411502 -0.000005 -0.000001 -0.257995 65.520290 7.075868 1.915374 25.456873 -7.360911 0.000001 -10.819320 168.196455 -3.010567 -0.000021 -0.000006 -1.147972 -20.260358 0.417431 0.610967 -0.000006 -0.000006 -0.308727 68.996044 -6.931019 -2.026853 25.456953 7.355622 -0.000003 
58.315701 5.705721 107.065994 0.782182 -0.039190 14.444334 -0.393641 0.023290 -0.451146 3.215771 0.045215 -0.902207 4.860760 0.034404 -0.902690 -2.827788 -10.291024 -1.534158 16.105045 5.240825 -0.944829 -24.114727 -60.727253 -28.452024 704.329763 -59.113764 760.706636 -0.000005 0.000001 0.000008 78.709235 1.132550 1.388896 -0.000003 0.000000 -3.000958 -4.999672 -7.999417 -0.000221 -8.618567 46.130497 9.232087 -122.568878 106.795868 84.260014 0.000001 -0.000018 -0.000003 40.386512 -9.338611 2.888353 -0.000000 -0.000001 3.003842 -5.000404 7.998723 -0.000229 -3.996593 -170.100657 2.994641 -179.999991 0.000005 -1.436000 167.686704 3.150970 -0.422586 -0.000004 -0.000002 -0.238214 65.609062 7.070245 1.922510 25.456882 -7.360991 0.000000 -10.805751 168.366144 -2.962593 -0.000020 -0.000004 -1.149618 -20.364535 0.443424 0.619090 -0.000005 -0.000006 -0.309949 68.989883 -6.930577 -2.027357 25.456952 7.355625 -0.000005 
58.312996 5.707089 107.106003 0.782817 -0.007129 14.386994 -0.381728 0.021603 -0.451376 3.239581 0.041759 -0.902672 4.884561 0.030943 -0.903114 -3.045442 -10.213360 -1.562875 16.194109 5.074674 -0.928787 -24.265605 -61.197669 -28.611797 704.697282 -59.422448 760.842311 -0.000004 0.000003 0.000008 77.909898 1.268682 1.252727 -0.000003 0.000001 -3.000960 -4.999673 -7.999415 -0.000221 -8.669539 46.379771 9.313388 -121.817312 106.625448 83.828483 -0.000002 -0.000018 -0.000002 39.727109 -9.292931 2.866913 -0.000001 -0.000003 3.003837 -5.000402 7.998718 -0.000227 -4.140779 -170.282941 2.942170 -179.999991 0.000005 -1.423994 167.509501 3.059966 -0.434510 -0.000005 -0.000001 -0.219152 65.693757 7.064570 1.930210 25.456878 -7.361065 0.000003 -10.800750 168.528265 -2.918908 -0.000021 -0.000004 -1.150711 -20.466727 0.473564 0.627792 -0.000006 -0.000007 -0.311244 68.986652 -6.930046 -2.028162 25.456953 7.355622 -0.000001 
58.327999 5.705053 107.200996 0.789525 0.030160 14.323883 -0.372634 0.018585 -0.453263 3.257740 0.035654 -0.906429 4.902720 0.024793 -0.906801 -3.238072 -10.102079 -1.578353 16.269439 4.885373 -0.901304 -24.382433 -61.645825 -28.731628 705.066658 -59.743064 760.959681 -0.000006 0.000003 0.000008 77.101047 1.402547 1.118224 -0.000001 0.000000 -3.000959 -4.999672 -7.999419 -0.000221 -8.744075 46.646456 9.424969 -121.107819 106.470000 83.439497 -0.000001 -0.000017 0.000002 39.036211 -9.248786 2.841783 -0.000001 -0.000001 3.003843 -5.000402 7.998725 -0.000231 -4.291711 -170.473298 2.886595 -179.999991 0.000004 -1.412997 167.333843 2.967129 -0.445502 -0.000005 -0.000001 -0.200862 65.773827 7.058752 1.938683 25.456892 -7.361136 -0.000002 -10.805806 168.680920 -2.879895 -0.000020 -0.000005 -1.151201 -20.566644 0.508101 0.637100 -0.000005 -0.000006 -0.312615 68.986666 -6.929408 -2.029339 25.456953 7.355623 -0.000002 
58.329304 5.757910 107.267982 0.802765 0.070991 14.253706 -0.366299 0.014377 -0.457185 3.270361 0.027180 -0.914257 4.915350 0.016226 -0.914523 -3.404929 -9.942778 -1.577037 16.329649 4.658531 -0.858271 -24.457582 -62.070389 -28.803143 705.452755 -60.080181 761.075248 -0.000005 0.000003 0.000009 76.279040 1.538454 0.984121 -0.000003 -0.000003 -3.000959 -4.999675 -7.999417 -0.000221 -8.847416 46.939720 9.574114 -120.468759 106.335069 83.117603 -0.000003 -0.000021 0.000002 38.310176 -9.205461 2.814463 -0.000000 -0.000002 3.003841 -5.000402 7.998723 -0.000230 -4.451215 -170.666743 2.829777 -179.999991 0.000005 -1.402002 167.158020 2.870483 -0.456924 -0.000004 -0.000001 -0.183315 65.849239 7.052995 1.947585 25.456892 -7.361208 0.000002 -10.819172 168.825993 -2.846885 -0.000020 -0.000005 -1.151000 -20.665393 0.549328 0.647502 -0.000005 -0.000005 -0.314118 68.990853 -6.928617 -2.030629 25.456952 7.355621 -0.000001 
58.287197 5.751511 107.311005 0.821995 0.113021 14.175677 -0.362255 0.009345 -0.463212 3.278400 0.017066 -0.926283 4.923389 0.005969 -0.926431 -3.548882 -9.728686 -1.557595 16.375698 4.386031 -0.797790 -24.489080 -62.472838 -28.824604 705.872511 -60.434825 761.211250 -0.000005 0.000003 0.000009 75.440402 1.680712 0.849770 -0.000004 -0.000001 -3.000959 -4.999669 -7.999419 -0.000217 -8.980871 47.264800 9.762902 -119.919776 106.223771 82.878963 -0.000001 -0.000018 -0.000000 37.551769 -9.161226 2.786553 0.000000 -0.000000 3.003842 -5.000403 7.998724 -0.000229 -4.619837 -170.861294 2.774177 -179.999991 0.000005 -1.391005 166.980148 2.768077 -0.468204 -0.000004 -0.000000 -0.166420 65.920731 7.047424 1.956085 25.456899 -7.361280 -0.000002 -10.837866 168.966326 -2.820315 -0.000020 -0.000004 -1.150162 -20.764383 0.598615 0.659380 -0.000005 -0.000006 -0.315807 68.999302 -6.927638 -2.032420 25.456950 7.355621 -0.000003 
